<svg xmlns="http://www.w3.org/2000/svg" width="500" height="500" viewBox="0 0 500 500">
  <defs>
    <style>
      .cls-1 {
        fill: red;
      }

      .cls-2, .cls-5 {
        fill: #fff;
      }

      .cls-2, .cls-3, .cls-4, .cls-5 {
        fill-rule: evenodd;
      }

      .cls-3 {
        fill: #fffefe;
      }

      .cls-4 {
        fill: #010101;
      }

      .cls-5 {
        stroke: #010101;
        stroke-width: 2px;
      }
    </style>
  </defs>
  <circle cx="250" cy="250" r="221"/>
  <circle class="cls-1" cx="250" cy="250" r="201"/>
  <circle cx="250" cy="250" r="122"/>
  <path id="Polygon_1" data-name="Polygon 1" class="cls-2" d="M250,129.75l22.873,88.768,91.492-5.677-77.356,49.184,33.672,85.259L250,288.914l-70.681,58.37,33.672-85.259-77.356-49.184,91.492,5.677Z"/>
  <path id="MAKE_TYPE_IN_A_CIRCLE" data-name="MAKE TYPE IN A CIRCLE" class="cls-3" d="M108.382,213.474L88.236,207.1l21.748,1.311,1.574-4.976L93.019,191.983l20.146,6.373,1.519-4.8-25.593-8.1-2.452,7.751,16.005,10.114-18.927-.879-2.447,7.734,25.594,8.1Zm-9.9-46.748L95.8,171.788l18.808,21.82,2.7-5.079-4.347-4.815,5.03-9.478,6.485,0.789,2.764-5.208Zm11.256,13.4-7.1-7.873,10.532,1.4Zm21.086-14.654-6.438-4.935-0.886-6.217,14.487,1.809,4.267-5.566-19.489-1.514-2.148-14.382-4.434,5.783,2.8,15.943-9.46-7.253-3.3,4.3,21.3,16.333Zm26.48-28.773-3.111-3.282-10.885,10.316-5.026-5.3,9.782-9.271-3.111-3.282-9.782,9.27-4.093-4.319,10.512-9.963-3.124-3.3-14.446,13.691,18.465,19.484Zm17.267-11.758-11.892-18.868,6.723-4.237-2.422-3.842-18.046,11.375,2.421,3.841,6.739-4.247,11.891,18.868Zm18.772-9.565-4.563-10.3,2.71-18.245-5.709,2.53-1.355,12.217-10.078-7.15L168.543,97l15.288,10.228,4.578,10.329Zm14.268-5.193-2.642-9.775,3.412-.922a30.911,30.911,0,0,0,5.326-1.838,7.849,7.849,0,0,0,2.382-1.962,7.358,7.358,0,0,0,1.51-3.149,8.75,8.75,0,0,0-.218-4.247,8.33,8.33,0,0,0-2.866-4.641,7.037,7.037,0,0,0-4.415-1.529,31.558,31.558,0,0,0-6.327,1.292l-8.4,2.269,7,25.914Zm-3.29-22.213a26.052,26.052,0,0,1,3.813-.841,3.75,3.75,0,0,1,2.414.581,3.471,3.471,0,0,1,1.461,2.109,3.606,3.606,0,0,1-.048,2.175,3.553,3.553,0,0,1-1.291,1.715,14.007,14.007,0,0,1-4.026,1.524L203.784,96,201.8,88.649Zm39.855,15.763-0.5-4.5-14.9,1.665-0.812-7.261,13.394-1.5-0.5-4.495-13.393,1.5L226.8,83.23,241.2,81.621l-0.5-4.513-19.78,2.21L223.89,106Zm14.674,0.509,1.1-26.821-5.415-.222-1.1,26.821Zm7.41,0.545,2.607-17.31,8.094,18.921,5.378,0.81,4-26.544-4.979-.75-2.669,17.726L270.5,78.274l-5.215-.785-4,26.544Zm48.571-15.069-5.345-2.069-19.439,21.26,5.362,2.076,4.266-4.887,10.007,3.873-0.015,6.532,5.5,2.128Zm-11.969,12.763,6.976-7.981L309.7,105.121Zm34.571,23.659a5.429,5.429,0,0,1-3.854-.92,5.943,5.943,0,0,1-2.761-4.44q-0.325-2.812,2.5-7.048,2.662-3.99,5.4-4.741a6.108,6.108,0,0,1,5.218.905,5.547,5.547,0,0,1,2.207,6.887l5.174,1.912a10.6,10.6,0,0,0,.459-5.637,11.164,11.164,0,0,0-5.041-6.863,11.865,11.865,0,0,0-9.628-1.966q-4.936,1.164-8.656,6.739-3.516,5.271-2.68,10.219a12.645,12.645,0,0,0,12.4,10.1,11.784,11.784,0,0,0,6.966-3.2l-3.447-4.3A7.972,7.972,0,0,1,337.437,126.136Zm8.36,13.649L363.029,119.2l-4.155-3.48-17.233,20.582ZM351.583,145l8.082-7.762,0.761,0.792A8.9,8.9,0,0,1,362.1,140.2a4.168,4.168,0,0,1,.324,1.949,38.025,38.025,0,0,1-.867,4.793l-1.5,6.873,4.49,4.674,1.506-5.991a30.671,30.671,0,0,0,1.006-5.244,12.647,12.647,0,0,0-.387-3.653,8.528,8.528,0,0,0,5.468,2.11,7.164,7.164,0,0,0,4.829-2.175,7.737,7.737,0,0,0,2.239-3.775,6.168,6.168,0,0,0-.308-4.034,19.505,19.505,0,0,0-3.81-5.011l-7.9-8.227-19.359,18.6Zm16.085-15.449,2.93,3.05q2.283,2.377,2.673,2.916a3.318,3.318,0,0,1,.656,2.2,3.218,3.218,0,0,1-1.078,2.037,3.5,3.5,0,0,1-1.833,1,2.919,2.919,0,0,1-1.871-.309,20.691,20.691,0,0,1-3.612-3.285l-2.778-2.892Zm9.845,38.417a5.425,5.425,0,0,1-3.232-2.293,5.946,5.946,0,0,1-.9-5.149q0.75-2.732,4.952-5.6,3.96-2.709,6.778-2.384a6.108,6.108,0,0,1,4.5,2.789,5.544,5.544,0,0,1-.525,7.213l4.087,3.7a10.6,10.6,0,0,0,2.53-5.058,11.164,11.164,0,0,0-2.113-8.248,11.866,11.866,0,0,0-8.2-5.419q-5.013-.763-10.546,3.019-5.229,3.576-6.3,8.48a12.647,12.647,0,0,0,7.733,14,11.791,11.791,0,0,0,7.657-.367l-1.591-5.279A7.972,7.972,0,0,1,377.513,167.965Zm8.64,28.214,4.077-1.958L384.4,182.072l19.923-9.567-2.346-4.885-24,11.524Zm6.43,20.509,4.318-1.345-4.459-14.318,6.975-2.173,4.008,12.867,4.318-1.345-4.008-12.867,5.682-1.769,4.307,13.828,4.336-1.35-5.919-19L386.512,197.2Z"/>
  <path id="TO_CREATE_A_ROUND_LOGO" data-name="TO CREATE A ROUND LOGO" class="cls-4" d="M80.059,276.832l22.086-3.1,1.1,7.869,4.5-.631-2.965-21.124-4.5.631,1.107,7.887-22.086,3.1Zm5.45,12.413a12.634,12.634,0,0,0-.782,10.168,12.505,12.505,0,0,0,6.216,8.007q4.527,2.338,10.757.483,6.282-1.872,8.792-6.336a12.6,12.6,0,0,0,.817-10.149,14.735,14.735,0,0,0-2.67-5.242,10.453,10.453,0,0,0-3.307-2.636,12.636,12.636,0,0,0-4.241-1.344,17.067,17.067,0,0,0-6.948.79Q88,284.814,85.508,289.245Zm17.632-.973a7.5,7.5,0,0,1,3.1,10.32q-1.6,2.586-6.02,3.9-4.475,1.334-7.306.008a7.239,7.239,0,0,1-3.028-10.227q1.653-2.69,6.023-3.991Q100.351,286.963,103.14,288.272Zm3.545,46.54a5.433,5.433,0,0,1-3.015-2.572,5.949,5.949,0,0,1-.441-5.21q0.99-2.653,5.432-5.141,4.185-2.343,6.963-1.769a6.109,6.109,0,0,1,4.236,3.179,5.547,5.547,0,0,1-1.166,7.138l3.74,4.054a10.58,10.58,0,0,0,2.971-4.812,11.164,11.164,0,0,0-1.369-8.4,11.867,11.867,0,0,0-7.682-6.128q-4.926-1.208-10.773,2.067-5.528,3.094-7.033,7.884A12.646,12.646,0,0,0,105,339.731a11.786,11.786,0,0,0,7.66.317l-1.114-5.4A7.987,7.987,0,0,1,106.685,334.812Zm4.622,17.075,8.815-6.919,0.678,0.864a8.922,8.922,0,0,1,1.447,2.333,4.164,4.164,0,0,1,.128,1.971,38.071,38.071,0,0,1-1.34,4.684l-2.176,6.688,4,5.1,2.095-5.811a30.584,30.584,0,0,0,1.523-5.118,12.651,12.651,0,0,0-.02-3.674,8.529,8.529,0,0,0,5.23,2.645,7.168,7.168,0,0,0,5.022-1.684,7.724,7.724,0,0,0,2.6-3.533,6.161,6.161,0,0,0,.1-4.044,19.518,19.518,0,0,0-3.292-5.365l-7.043-8.974-21.115,16.575Zm17.543-13.77,2.612,3.327q2.036,2.592,2.37,3.167a3.323,3.323,0,0,1,.432,2.256,3.215,3.215,0,0,1-1.274,1.92,3.5,3.5,0,0,1-1.924.812,2.91,2.91,0,0,1-1.831-.5,20.682,20.682,0,0,1-3.267-3.627l-2.476-3.155Zm10.8,44.248,3.1-3.288-10.9-10.3,5.017-5.311,9.8,9.254,3.106-3.288-9.8-9.254,4.086-4.326L154.59,365.8l3.118-3.3-14.469-13.667-18.432,19.514Zm29.694-11.629-4.7-3.275L140.72,383.516l4.719,3.285,5.3-3.738,8.806,6.131-1.561,6.344,4.839,3.369Zm-14.65,9.568,8.667-6.1L160.7,384.489Zm20.728,24.755,10-19.935,7.1,3.564,2.036-4.059L175.5,375.063l-2.037,4.059,7.12,3.572-10,19.934Zm29.363,11.279,1.453-4.283-14.2-4.818,2.347-6.918,12.762,4.33,1.453-4.283-12.762-4.33,1.912-5.636,13.716,4.654,1.459-4.3-18.849-6.394-8.624,25.42Zm30.487-21.893-5.691-.677-13.552,25.421,5.709,0.679,2.92-5.793,10.655,1.267,1.608,6.331,5.854,0.7Zm-8.425,15.335,4.776-9.463,2.5,10.328Zm33.964,11.969-1.039-11.157,1.094-.1a8.931,8.931,0,0,1,2.744.047,4.17,4.17,0,0,1,1.726.961,38.083,38.083,0,0,1,3.211,3.664l4.443,5.452,6.454-.6-3.749-4.91a30.6,30.6,0,0,0-3.477-4.053,12.653,12.653,0,0,0-3.1-1.973,8.535,8.535,0,0,0,5.057-2.963,7.166,7.166,0,0,0,1.305-5.133,7.733,7.733,0,0,0-1.559-4.1,6.175,6.175,0,0,0-3.347-2.272,19.551,19.551,0,0,0-6.294-.14l-11.358,1.059,2.491,26.727Zm-2.069-22.206,4.212-.392q3.281-.306,3.946-0.276a3.321,3.321,0,0,1,2.131.859,3.221,3.221,0,0,1,.923,2.111,3.508,3.508,0,0,1-.36,2.057,2.923,2.923,0,0,1-1.408,1.271,20.685,20.685,0,0,1-4.819.78l-3.993.372Zm24.805,16.2a12.634,12.634,0,0,0,10.135,1.136,12.507,12.507,0,0,0,8.218-5.934q2.495-4.443.857-10.734-1.651-6.344-6.026-9.008a12.6,12.6,0,0,0-10.115-1.169,14.751,14.751,0,0,0-5.332,2.486,10.463,10.463,0,0,0-2.749,3.213,12.637,12.637,0,0,0-1.491,4.192,17.073,17.073,0,0,0,.548,6.972Q279.207,413.1,283.546,415.742Zm-0.359-17.655a7.5,7.5,0,0,1,10.421-2.742q2.531,1.688,3.693,6.153,1.178,4.518-.246,7.3a7.239,7.239,0,0,1-10.326,2.671q-2.631-1.746-3.78-6.159Q281.782,400.829,283.187,398.087Zm21.441,2.185a32.562,32.562,0,0,0,3.245,6.012,7.4,7.4,0,0,0,2.6,2.105,8.351,8.351,0,0,0,3.806.837,14.892,14.892,0,0,0,5.692-1.551,13.753,13.753,0,0,0,4.39-2.837,8.173,8.173,0,0,0,2-3.281,7.558,7.558,0,0,0,.117-3.736,36.224,36.224,0,0,0-2.366-6.423L318.4,378.509l-4.955,2.2,6.016,13.576a30.151,30.151,0,0,1,1.63,4.265,3.728,3.728,0,0,1-.35,2.689,5.466,5.466,0,0,1-2.8,2.271,5.766,5.766,0,0,1-3.677.538,4.343,4.343,0,0,1-2.587-1.747,30.2,30.2,0,0,1-2-4.02l-5.89-13.292-4.956,2.2Zm33.651-2.513-9.487-14.712,18.581,8.847,4.571-2.947L337.4,366.387l-4.231,2.729,9.714,15.066-18.948-9.112-4.431,2.858,14.547,22.56Zm17.962-12.053,7.617-6.782a16.382,16.382,0,0,0,3.206-3.614,9.53,9.53,0,0,0,1.42-4.133,11.83,11.83,0,0,0-1.007-5.453,17.635,17.635,0,0,0-3.183-4.815,19.8,19.8,0,0,0-4.875-4.154,11.728,11.728,0,0,0-4.807-1.544,8.98,8.98,0,0,0-4.666.845,19.361,19.361,0,0,0-4.156,3.014l-7.4,6.587Zm-8.963-21.881a24.6,24.6,0,0,1,3.493-2.767,5.162,5.162,0,0,1,2.714-.724,6.137,6.137,0,0,1,2.878.919,16.035,16.035,0,0,1,3.588,3.2,17.522,17.522,0,0,1,2.859,4.037,5.685,5.685,0,0,1,.663,2.879,5,5,0,0,1-.892,2.289,14.727,14.727,0,0,1-2.277,2.371l-3.022,2.691-11.823-13.279Zm46.66-19.07-3.62-2.711-8.079,10.786L364.55,339.581l-3.249,4.338,21.308,15.961Zm0.333-6.561a12.635,12.635,0,0,0,7.73-6.652,12.508,12.508,0,0,0,1.246-10.06q-1.558-4.851-7.281-7.933-5.772-3.106-10.7-1.716a12.607,12.607,0,0,0-7.741,6.615,14.75,14.75,0,0,0-1.808,5.6,10.426,10.426,0,0,0,.484,4.2,12.616,12.616,0,0,0,2.056,3.946,17.068,17.068,0,0,0,5.48,4.343Q389.379,339.575,394.271,338.194Zm-13.179-11.753a7.5,7.5,0,0,1,5.084-9.5q2.958-.7,7.021,1.482,4.111,2.214,5.182,5.15a7.24,7.24,0,0,1-5.072,9.383q-3.071.738-7.085-1.423Q382.144,329.336,381.092,326.441ZM405.841,295.4l3.227,1.09a11.729,11.729,0,0,1,.6,3.3,9.342,9.342,0,0,1-.459,3.45,7.09,7.09,0,0,1-4.045,4.509q-2.943,1.25-7.471-.28-4.2-1.416-5.662-4.124a7.344,7.344,0,0,1-.327-6.072,6.449,6.449,0,0,1,2.334-3.338,5.686,5.686,0,0,1,3.641-1.023l0.767-5.422a9.461,9.461,0,0,0-6.647,1.573q-2.886,1.992-4.484,6.729a13.875,13.875,0,0,0-.789,6.516,11.839,11.839,0,0,0,3.09,6.474,15.458,15.458,0,0,0,6.5,4.049,16.328,16.328,0,0,0,7.278.8,11.239,11.239,0,0,0,6.294-2.843,14.688,14.688,0,0,0,4.022-6.391,17.961,17.961,0,0,0,.905-6.6,14.724,14.724,0,0,0-1.171-5.6l-10.132-3.419-3.736,11.068,4.285,1.447Zm9.409-9.5a12.637,12.637,0,0,0,5.1-8.834,12.509,12.509,0,0,0-2.149-9.906q-3.075-4.064-9.5-5.08-6.474-1.024-10.666,1.918a12.6,12.6,0,0,0-5.119,8.8,14.726,14.726,0,0,0,.145,5.881,10.454,10.454,0,0,0,1.845,3.805,12.634,12.634,0,0,0,3.244,3.044,17.082,17.082,0,0,0,6.609,2.288Q411.09,288.819,415.25,285.9Zm-16.323-6.736a7.5,7.5,0,0,1,1.657-10.648q2.559-1.643,7.116-.922,4.613,0.731,6.593,3.147a7.238,7.238,0,0,1-1.685,10.532q-2.654,1.713-7.156,1Q400.876,281.549,398.927,279.164Z"/>
  <path id="Polygon_2" data-name="Polygon 2" class="cls-5" d="M100.75,255l-9.9-7.879-9.609,8.234L85.672,243.5l-10.8-6.595,12.642,0.554,2.934-12.309,3.38,12.194,12.614-1.013-10.554,6.983Z"/>
  <path id="Polygon_3" data-name="Polygon 3" class="cls-5" d="M420.75,254l-11.021-9.165-11.083,9.089,5.311-13.314-12.07-7.732,14.3,0.937,3.625-13.868,3.528,13.893,14.31-.839-12.122,7.649Z"/>
</svg>
