<svg xmlns="http://www.w3.org/2000/svg" xmlns:xlink="http://www.w3.org/1999/xlink" width="500" height="500" viewBox="0 0 500 500">
  <defs>
    <style>
      .cls-1 {
        fill: #010101;
      }

      .cls-2 {
        fill: #6408ab;
      }

      .cls-10, .cls-2, .cls-3, .cls-4, .cls-5, .cls-7, .cls-8, .cls-9 {
        fill-rule: evenodd;
      }

      .cls-3 {
        fill: #248853;
      }

      .cls-4 {
        fill: #00aeef;
      }

      .cls-5 {
        fill: #066c63;
      }

      .cls-10, .cls-6, .cls-7, .cls-8, .cls-9 {
        fill: #fff;
      }

      .cls-8 {
        filter: url(#filter);
      }

      .cls-9 {
        filter: url(#filter-2);
      }

      .cls-10 {
        filter: url(#filter-3);
      }
    </style>
    <filter id="filter" x="57" y="56" width="387" height="190" filterUnits="userSpaceOnUse">
      <feOffset result="offset" in="SourceAlpha"/>
      <feGaussianBlur result="blur" stdDeviation="3"/>
      <feFlood result="flood" flood-color="#020202" flood-opacity="0.44"/>
      <feComposite result="composite" operator="in" in2="blur"/>
      <feBlend result="blend" in="SourceGraphic"/>
    </filter>
    <filter id="filter-2" x="90" y="324" width="324" height="120" filterUnits="userSpaceOnUse">
      <feOffset result="offset" in="SourceAlpha"/>
      <feGaussianBlur result="blur" stdDeviation="3"/>
      <feFlood result="flood" flood-color="#020202" flood-opacity="0.44"/>
      <feComposite result="composite" operator="in" in2="blur"/>
      <feBlend result="blend" in="SourceGraphic"/>
    </filter>
    <filter id="filter-3" x="58" y="240" width="385" height="95" filterUnits="userSpaceOnUse">
      <feOffset result="offset" in="SourceAlpha"/>
      <feGaussianBlur result="blur" stdDeviation="3"/>
      <feFlood result="flood" flood-color="#020202" flood-opacity="0.44"/>
      <feComposite result="composite" operator="in" in2="blur"/>
      <feBlend result="blend" in="SourceGraphic"/>
    </filter>
  </defs>
  <circle class="cls-1" cx="250" cy="250" r="238"/>
  <path class="cls-2" d="M474.07,249.949c0-24.739-20.057-46.612-44.816-44.862-9.267.649-36.7,7.1-67.413,14.911,30.5-8.58,57.492-16.7,65.842-20.766C450,188.371,456.427,159.4,444.05,137.989s-40.691-30.349-61.262-16.46c-7.691,5.2-28.235,24.483-50.916,46.6C354,145.457,373.306,124.932,378.5,117.244c13.906-20.56,4.964-48.85-16.466-61.22s-50.413-5.949-61.283,16.358c-4.062,8.342-12.193,35.3-20.775,65.764,7.812-30.673,14.268-58.076,14.922-67.334,1.743-24.747-20.157-44.784-44.9-44.784s-46.638,20.036-44.889,44.784c0.649,9.258,7.1,36.661,14.91,67.339-8.576-30.471-16.7-57.427-20.775-65.775-10.858-22.3-39.848-28.716-61.282-16.348s-30.367,40.656-16.477,61.216c5.2,7.688,24.493,28.2,46.618,50.863-22.67-22.1-43.2-41.388-50.9-46.578-20.566-13.889-48.88-4.96-61.257,16.46s-5.953,50.382,16.366,61.243c8.356,4.066,35.33,12.186,65.823,20.761-30.7-7.811-58.126-14.257-67.393-14.911-24.765-1.745-44.811,20.133-44.811,44.867s20.047,46.61,44.811,44.863c9.267-.655,36.686-7.1,67.382-14.906-30.492,8.57-57.466,16.692-65.816,20.755-22.314,10.856-28.733,39.824-16.361,61.249s40.691,30.341,61.257,16.457c7.7-5.195,28.23-24.486,50.911-46.588-22.126,22.667-41.425,43.182-46.629,50.873-13.89,20.554-4.952,48.847,16.477,61.215s50.424,5.952,61.282-16.353c4.074-8.345,12.2-35.3,20.786-65.777-7.822,30.681-14.272,58.087-14.921,67.344-1.749,24.748,20.141,44.79,44.889,44.79s46.644-20.042,44.9-44.79c-0.66-9.257-7.11-36.673-14.932-67.357,8.586,30.477,16.712,57.445,20.785,65.79,10.87,22.305,39.854,28.719,61.283,16.353s30.372-40.661,16.466-61.215c-5.194-7.7-24.5-28.216-46.628-50.889,22.681,22.113,43.225,41.409,50.921,46.6,20.566,13.884,48.885,4.958,61.257-16.457s5.953-50.393-16.367-61.249c-8.35-4.063-35.335-12.191-65.838-20.766,30.708,7.811,58.142,14.257,67.409,14.911C454.013,296.559,474.07,274.681,474.07,249.949Z"/>
  <path class="cls-3" d="M462.067,249.952c0-23.414-18.983-44.115-42.416-42.459-8.77.614-34.735,6.72-63.8,14.113,28.868-8.121,54.412-15.811,62.316-19.654,21.123-10.28,27.2-37.695,15.489-57.963s-38.511-28.723-57.98-15.578c-7.279,4.919-26.722,23.172-48.188,44.1,20.94-21.454,39.215-40.88,44.13-48.157,13.161-19.457,4.7-46.232-15.584-57.94s-47.712-5.63-58,15.482c-3.845,7.9-11.54,33.407-19.661,62.241,7.393-29.03,13.5-54.965,14.122-63.727,1.65-23.422-19.077-42.385-42.5-42.385s-44.14,18.963-42.485,42.385c0.615,8.762,6.72,34.7,14.112,63.732-8.116-28.839-15.806-54.351-19.662-62.251-10.276-21.107-37.713-27.178-58-15.472s-28.74,38.478-15.594,57.935c4.925,7.277,23.18,26.688,44.12,48.139-21.455-20.921-40.884-39.171-48.173-44.083-19.464-13.145-46.261-4.694-57.975,15.578s-5.634,47.683,15.49,57.963c7.908,3.848,33.438,11.533,62.3,19.649-29.057-7.393-55.011-13.494-63.782-14.113-23.438-1.651-42.411,19.055-42.411,42.464s18.973,44.113,42.411,42.459c8.77-.619,34.721-6.72,63.772-14.107-28.858,8.11-54.387,15.8-62.29,19.643-21.119,10.275-27.194,37.69-15.485,57.968s38.511,28.715,57.975,15.576c7.289-4.917,26.718-23.175,48.184-44.093-20.941,21.453-39.206,40.869-44.131,48.148-13.146,19.453-4.687,46.23,15.594,57.936s47.723,5.632,58-15.477c3.856-7.9,11.546-33.412,19.673-62.254-7.4,29.037-13.508,54.975-14.123,63.737-1.655,23.421,19.063,42.39,42.485,42.39s44.146-18.969,42.5-42.39c-0.624-8.762-6.729-34.709-14.132-63.749,8.126,28.844,15.817,54.368,19.671,62.266,10.288,21.109,37.719,27.18,58,15.477S384.777,395,371.616,375.546c-4.915-7.284-23.19-26.7-44.13-48.163,21.466,20.928,40.909,39.191,48.194,44.108,19.463,13.139,46.265,4.691,57.974-15.576s5.634-47.693-15.489-57.968c-7.9-3.845-33.442-11.538-62.311-19.654,29.062,7.393,55.027,13.494,63.8,14.113C443.084,294.065,462.067,273.359,462.067,249.952Z"/>
  <path class="cls-4" d="M432.057,249.959c0-20.1-16.3-37.872-36.413-36.451-7.529.527-29.82,5.769-54.773,12.116,24.783-6.972,46.712-13.574,53.5-16.873,18.134-8.825,23.354-32.36,13.3-49.76S374.6,134.333,357.89,145.617c-6.249,4.223-22.941,19.893-41.369,37.86,17.977-18.418,33.665-35.095,37.885-41.342,11.3-16.7,4.033-39.69-13.378-49.741s-40.961-4.834-49.793,13.291c-3.3,6.778-9.907,28.68-16.879,53.433,6.347-24.921,11.592-47.186,12.124-54.708C287.9,84.3,270.1,68.023,250,68.023S212.1,84.3,213.525,104.41c0.527,7.522,5.768,29.787,12.115,54.713-6.968-24.758-13.57-46.66-16.88-53.442-8.822-18.12-32.376-23.332-49.792-13.283s-24.673,33.033-13.387,49.737c4.228,6.247,19.9,22.911,37.877,41.327-18.42-17.961-35.1-33.628-41.357-37.845-16.709-11.284-39.714-4.03-49.771,13.374s-4.837,40.935,13.3,49.76c6.789,3.3,28.706,9.9,53.481,16.868-24.946-6.346-47.228-11.584-54.757-12.115-20.121-1.417-36.409,16.358-36.409,36.455s16.288,37.87,36.409,36.45c7.529-.531,29.807-5.768,54.748-12.111-24.775,6.963-46.691,13.563-53.476,16.864-18.13,8.821-23.346,32.357-13.294,49.765S125.392,365.579,142.1,354.3c6.258-4.221,22.937-19.894,41.366-37.853-17.978,18.417-33.658,35.086-37.886,41.335-11.286,16.7-4.024,39.688,13.387,49.737s40.97,4.836,49.792-13.287c3.31-6.78,9.912-28.683,16.889-53.443-6.356,24.927-11.6,47.2-12.124,54.717C212.1,415.611,229.89,431.9,250,431.9s37.9-16.284,36.482-36.391c-0.536-7.522-5.777-29.8-12.132-54.728,6.976,24.762,13.578,46.674,16.887,53.454,8.832,18.123,32.381,23.335,49.793,13.287s24.677-33.037,13.378-49.737c-4.22-6.253-19.908-22.926-37.885-41.347,18.428,17.966,35.12,33.644,41.374,37.865,16.709,11.281,39.718,4.028,49.77-13.371s4.837-40.944-13.3-49.765c-6.785-3.3-28.71-9.9-53.494-16.872,24.95,6.346,47.241,11.584,54.77,12.115C415.761,287.829,432.057,270.054,432.057,249.959Z"/>
  <path class="cls-5" d="M414.052,249.963c0-18.113-14.685-34.127-32.812-32.846-6.785.475-26.871,5.2-49.357,10.918,22.332-6.282,42.093-12.231,48.207-15.2,16.341-7.952,21.044-29.16,11.982-44.839s-29.791-22.22-44.852-12.051c-5.631,3.805-20.673,17.925-37.278,34.115,16.2-16.6,30.336-31.623,34.139-37.253,10.18-15.052,3.633-35.764-12.056-44.821s-36.91-4.356-44.868,11.976c-2.974,6.108-8.927,25.843-15.21,48.149,5.719-22.457,10.446-42.52,10.925-49.3C284.148,100.69,268.114,86.021,250,86.021s-34.146,14.67-32.866,32.789c0.476,6.778,5.2,26.841,10.917,49.3-6.279-22.31-12.228-42.045-15.21-48.157-7.95-16.328-29.175-21.024-44.868-11.969s-22.232,29.766-12.063,44.818c3.81,5.63,17.932,20.645,34.131,37.24-16.6-16.185-31.628-30.3-37.266-34.1-15.057-10.169-35.787-3.632-44.849,12.051s-4.358,36.887,11.983,44.839c6.117,2.976,25.866,8.922,48.191,15.2-22.478-5.719-42.556-10.439-49.341-10.918-18.131-1.277-32.809,14.741-32.809,32.85s14.678,34.125,32.809,32.845c6.785-.478,26.859-5.2,49.333-10.913-22.325,6.275-42.073,12.222-48.187,15.2-16.337,7.948-21.037,29.157-11.979,44.843s29.792,22.214,44.849,12.049c5.638-3.8,20.668-17.927,37.274-34.109-16.2,16.595-30.329,31.615-34.139,37.246-10.169,15.049-3.626,35.763,12.063,44.819s36.918,4.357,44.868-11.973c2.982-6.11,8.931-25.847,15.218-48.158-5.727,22.462-10.449,42.527-10.925,49.305-1.28,18.119,14.746,32.792,32.866,32.792s34.15-14.673,32.874-32.792c-0.483-6.778-5.206-26.85-10.932-49.315,6.286,22.313,12.235,42.058,15.217,48.168,7.958,16.33,29.179,21.026,44.868,11.973s22.236-29.77,12.056-44.819c-3.8-5.634-17.94-20.658-34.139-37.258,16.605,16.19,31.647,30.318,37.282,34.121,15.057,10.165,35.79,3.63,44.848-12.049s4.359-36.9-11.982-44.843c-6.114-2.974-25.871-8.925-48.2-15.2,22.482,5.719,42.568,10.439,49.353,10.918C399.367,284.088,414.052,268.07,414.052,249.963Z"/>
  <circle class="cls-1" cx="250" cy="250" r="141"/>
  <circle class="cls-6" cx="250" cy="250" r="133"/>
  <circle class="cls-1" cx="250" cy="250" r="126"/>
  <path class="cls-7" d="M312.174,196.879c-6.4,22.324-22.9,37.192-36.858,33.211s-20.071-25.314-13.668-47.638,22.909-37.193,36.858-33.212S318.577,174.555,312.174,196.879Zm-98.448-51.686c-14.331,2.284-22.973,22.723-19.3,45.652s18.26,39.671,32.591,37.387,22.977-22.722,19.3-45.65S228.057,142.908,213.726,145.193Zm-54.7,63.161c-13.317,5.289-17.831,25.317-10.085,44.735s24.823,30.869,38.14,25.581,17.831-25.32,10.081-44.737S172.337,203.064,159.024,208.354Zm182.725,14.38c-13.178-5.623-30.537,5.4-38.772,24.615s-4.229,39.353,8.95,44.972,30.537-5.4,38.772-24.615S354.923,228.353,341.749,222.734Zm-31.178,120.36c16.263-17.233-28.094-88.518-60.624-89.992-34.007-1.543-85.768,75.24-68.023,92.943s50.279,2.952,68.023,0S285.479,369.692,310.571,343.094Z"/>
  <path id="THE_ARTISTIC_PAWPRINT" data-name="THE ARTISTIC PAWPRINT" class="cls-8" d="M99.331,223.072l-24.48-3.844,1.37-8.723-4.985-.782-3.677,23.415,4.984,0.782,1.373-8.743,24.48,3.844Zm3.434-15.247L90.376,203.75l3.687-11.209,12.388,4.075,1.882-5.721L80,181.575,78.12,187.3l11.151,3.668-3.687,11.209-11.151-3.668-1.882,5.721,28.333,9.32Zm17.514-39.846-4.439-2.355-7.807,14.721-7.171-3.8,7.015-13.229-4.44-2.354-7.015,13.229-5.842-3.1,7.54-14.218-4.458-2.363L83.3,174.047l26.351,13.973Zm-6.931-39.473-4.156,4.825L124.209,161.6l4.169-4.84-3.526-6.287,7.781-9.033,6.832,2.448,4.276-4.964Zm8.905,17.283L116.5,135.513l11.068,4.11Zm26.464-10.623-7.872-9.647,0.946-.772a9.958,9.958,0,0,1,2.561-1.656,4.626,4.626,0,0,1,2.188-.183,42.164,42.164,0,0,1,5.231,1.391l7.476,2.276,5.58-4.553-6.5-2.206a33.9,33.9,0,0,0-5.717-1.585,14.049,14.049,0,0,0-4.081.1,9.471,9.471,0,0,0,2.829-5.866,7.964,7.964,0,0,0-1.976-5.544,8.59,8.59,0,0,0-3.98-2.818,6.856,6.856,0,0,0-4.494-.022,21.7,21.7,0,0,0-5.892,3.77l-9.821,8.013,18.856,23.109Zm-15.666-19.2L136.693,113q2.836-2.315,3.469-2.7a3.692,3.692,0,0,1,2.5-.528,3.578,3.578,0,0,1,2.16,1.376,3.88,3.88,0,0,1,.942,2.12,3.25,3.25,0,0,1-.511,2.045,23.06,23.06,0,0,1-3.962,3.7l-3.452,2.816Zm43.176-.072L163.834,94.435l7.646-4.416-2.523-4.369L148.432,97.5l2.523,4.369,7.664-4.426,12.393,21.459Zm13.857-6.751-12.241-27.2-5.491,2.472,12.24,27.2Zm3.643-3.971q3.69,1.551,9.07-.2a16.892,16.892,0,0,0,5.836-3.039,8.534,8.534,0,0,0,2.8-4.408,9.392,9.392,0,0,0-2.728-9.157,8.376,8.376,0,0,0-4.07-1.865,29.217,29.217,0,0,0-6.846-.034q-4.5.37-5.879-.187a2.29,2.29,0,0,1-1.411-1.446,2.175,2.175,0,0,1,.338-2.056,6.884,6.884,0,0,1,3.576-2.295,6.071,6.071,0,0,1,3.939-.22,5.112,5.112,0,0,1,2.6,2.632l5.647-2.111a8.691,8.691,0,0,0-4.865-5.33q-3.459-1.465-8.8.269a14.917,14.917,0,0,0-5.262,2.8,8.092,8.092,0,0,0-2.609,4.023A7.667,7.667,0,0,0,185.154,87a7.76,7.76,0,0,0,4.466,4.86q2.4,1.061,7.374.707,3.869-.272,4.988-0.251a4.966,4.966,0,0,1,2.46.56,2.719,2.719,0,0,1,1.146,1.521,3.663,3.663,0,0,1-.514,3.194,6.706,6.706,0,0,1-3.79,2.525,6.494,6.494,0,0,1-4.578.032,7.153,7.153,0,0,1-3.38-3.459l-5.4,2.351A11.369,11.369,0,0,0,193.727,105.172Zm34.82-6.71L224.616,74l8.718-1.4-0.8-4.982-23.4,3.76,0.8,4.982,8.738-1.4L222.6,99.417Zm15.374-1.374-1.757-29.774-6.011.355,1.757,29.774Zm19.544-5.756a6.033,6.033,0,0,1-4.208,1.3,6.6,6.6,0,0,1-5.149-2.688q-1.9-2.509-1.589-8.156,0.292-5.322,2.486-7.586a6.785,6.785,0,0,1,5.5-2.081,6.162,6.162,0,0,1,6,5.343l6.03-1.094a11.768,11.768,0,0,0-2.745-5.653,12.407,12.407,0,0,0-8.7-3.719,13.183,13.183,0,0,0-10.322,3.558q-4.067,3.9-4.475,11.337-0.387,7.029,3.209,11.292a14.051,14.051,0,0,0,17.57,2.659,13.1,13.1,0,0,0,4.858-7l-5.729-2.17A8.862,8.862,0,0,1,263.465,91.332ZM287.6,101.575l3.1-10.815,3.774,1.082a34.39,34.39,0,0,0,6.122,1.311,8.732,8.732,0,0,0,3.392-.5,8.181,8.181,0,0,0,3.245-2.128,9.743,9.743,0,0,0,2.231-4.165,9.261,9.261,0,0,0-.061-6.06,7.827,7.827,0,0,0-3.322-3.99,35.076,35.076,0,0,0-6.761-2.4l-9.289-2.664-8.221,28.671Zm9.626-23.019a29,29,0,0,1,4.11,1.39,4.169,4.169,0,0,1,1.963,1.939,3.855,3.855,0,0,1,.179,2.845,4.009,4.009,0,0,1-1.3,2.042,3.953,3.953,0,0,1-2.213.889,15.575,15.575,0,0,1-4.705-.862L292.1,85.89l2.333-8.136Zm34.732,7.954-5.736-2.765-23.417,21.822,5.755,2.774,5.16-5.034,10.739,5.177-0.6,7.234,5.9,2.845ZM317.569,99.584L326,91.364l-1.1,11.754Zm20.969,25.483L356.824,111l-8.884,21.3,5.064,3.9,23.924-19.227-4.806-3.7-16.329,13.723,8.556-19.7-5.677-4.365L341.86,115.842l8.926-18.981L345.9,93.1l-12.538,27.983Zm23.612,20.746,8.477-7.4,2.582,2.959a34.367,34.367,0,0,0,4.428,4.426,8.731,8.731,0,0,0,3.118,1.423,8.168,8.168,0,0,0,3.881-.024,9.718,9.718,0,0,0,4.135-2.285,9.251,9.251,0,0,0,3.24-5.121,7.818,7.818,0,0,0-.622-5.154,34.941,34.941,0,0,0-4.371-5.691l-6.353-7.282-22.474,19.608Zm20.585-14.1a28.919,28.919,0,0,1,2.695,3.4,4.163,4.163,0,0,1,.6,2.694,3.857,3.857,0,0,1-1.4,2.486,4.007,4.007,0,0,1-2.2,1.011,3.949,3.949,0,0,1-2.341-.455,15.56,15.56,0,0,1-3.483-3.28l-2.166-2.483,6.377-5.564Zm-5.258,33.438,10.621-6.5,0.637,1.041a9.928,9.928,0,0,1,1.3,2.761,4.613,4.613,0,0,1-.114,2.192,42.006,42.006,0,0,1-2.082,5l-3.263,7.1,3.759,6.143,3.062-6.143a34.076,34.076,0,0,0,2.341-5.452,14.066,14.066,0,0,0,.451-4.057,9.481,9.481,0,0,0,5.431,3.594,7.969,7.969,0,0,0,5.759-1.211,8.6,8.6,0,0,0,3.329-3.564,6.857,6.857,0,0,0,.627-4.451,21.687,21.687,0,0,0-2.941-6.346l-6.617-10.811-25.439,15.57Zm21.136-12.935,2.454,4.008q1.911,3.124,2.207,3.8a3.684,3.684,0,0,1,.186,2.545,3.579,3.579,0,0,1-1.654,1.955,3.88,3.88,0,0,1-2.227.647,3.245,3.245,0,0,1-1.958-.781,23.053,23.053,0,0,1-3.137-4.425l-2.326-3.8Zm-8.378,36.427,27.07-12.521-2.528-5.465-27.07,12.52Zm3.21,7.634,18.483-6.056L397.189,207.7l1.881,5.742,28.343-9.287-1.742-5.316-18.927,6.2,15.126-17.8-1.824-5.568L391.7,190.961Zm8.192,32.982,24.485-3.815,1.359,8.724,4.985-.776-3.649-23.42-4.985.777,1.362,8.745L400.71,223.31Z"/>
  <path id="CHRISTINA_BUCHWALD" data-name="CHRISTINA BUCHWALD" class="cls-9" d="M108.622,356.689a4.826,4.826,0,0,1-2.926-1.96,5.286,5.286,0,0,1-.926-4.554q0.6-2.445,4.267-5.1,3.453-2.5,5.965-2.279a5.426,5.426,0,0,1,4.067,2.37,4.928,4.928,0,0,1-.294,6.422l3.719,3.2a9.415,9.415,0,0,0,2.128-4.555,9.926,9.926,0,0,0-2.074-7.279,10.55,10.55,0,0,0-7.413-4.62q-4.475-.558-9.3,2.935-4.561,3.3-5.4,7.684a11.241,11.241,0,0,0,7.2,12.256,10.476,10.476,0,0,0,6.8-.508l-1.539-4.653A7.092,7.092,0,0,1,108.622,356.689Zm5.357,14.331,7.609-7.139,6.459,6.884-7.609,7.139,3.3,3.513,17.4-16.326-3.3-3.513L130.991,368l-6.46-6.885,6.849-6.426-3.3-3.513-17.4,16.326ZM130.5,387.355l6.343-7.681,0.753,0.622a7.922,7.922,0,0,1,1.7,1.752,3.7,3.7,0,0,1,.485,1.688,33.631,33.631,0,0,1-.276,4.321l-0.621,6.221,4.443,3.669,0.718-5.444a27.258,27.258,0,0,0,.352-4.733,11.249,11.249,0,0,0-.714-3.187,7.577,7.577,0,0,0,5.043,1.306,6.373,6.373,0,0,0,4.042-2.415,6.878,6.878,0,0,0,1.591-3.562,5.485,5.485,0,0,0-.684-3.53,17.345,17.345,0,0,0-3.876-4.036l-7.818-6.457-15.194,18.4Zm12.624-15.286,2.9,2.395q2.259,1.864,2.659,2.3a2.953,2.953,0,0,1,.8,1.877,2.857,2.857,0,0,1-.743,1.909,3.1,3.1,0,0,1-1.516,1.07,2.6,2.6,0,0,1-1.684-.082,18.451,18.451,0,0,1-3.525-2.531l-2.748-2.27Zm5.711,29.264,13.546-19.643-3.966-2.735L144.864,398.6Zm5.343,1.62q1.06,3.023,4.983,5.277a13.512,13.512,0,0,0,4.935,1.833,6.829,6.829,0,0,0,4.12-.7,7.512,7.512,0,0,0,3.971-6.532,6.7,6.7,0,0,0-1.077-3.416,23.361,23.361,0,0,0-3.653-4.081,12.661,12.661,0,0,1-3.043-3.589,1.834,1.834,0,0,1,.1-1.613,1.738,1.738,0,0,1,1.4-.9,5.505,5.505,0,0,1,3.28.89,4.854,4.854,0,0,1,2.244,2.22,4.094,4.094,0,0,1-.168,2.954l4.282,2.218a6.951,6.951,0,0,0,.553-5.747q-0.987-2.838-4.881-5.077a11.932,11.932,0,0,0-4.485-1.621,6.466,6.466,0,0,0-3.787.611,6.131,6.131,0,0,0-2.595,2.441,6.208,6.208,0,0,0-.488,5.258,13.092,13.092,0,0,0,3.536,4.755q2.238,2.15,2.825,2.826a3.969,3.969,0,0,1,.988,1.76,2.175,2.175,0,0,1-.287,1.5,2.929,2.929,0,0,1-2.171,1.408,5.367,5.367,0,0,1-3.532-.894,5.19,5.19,0,0,1-2.475-2.7,5.722,5.722,0,0,1,.239-3.861l-4.291-1.941A9.1,9.1,0,0,0,154.173,402.953Zm25.753,15.085,7.883-18.189,6.481,2.809,1.605-3.7-17.4-7.54-1.605,3.7,6.5,2.815-7.883,18.19Zm13.142,4.9,7.766-22.562-4.555-1.568-7.766,22.562Zm7.911,2.46,3.756-15.1,5.578,17.422L215,428.886l5.761-23.155-4.343-1.081-3.847,15.463-5.63-17.821-4.549-1.131-5.761,23.155Zm32.858-18.053-5.06-.589-11.988,22.627,5.076,0.591,2.583-5.156,9.474,1.1,1.443,5.624,5.206,0.606Zm-7.454,13.651,4.224-8.423,2.243,9.175Zm24.42,11.254,8.109-.456q4.6-.292,5.792-0.489a6.834,6.834,0,0,0,3.163-1.311,6.38,6.38,0,0,0,1.925-2.57,7.08,7.08,0,0,0,.578-3.2A5.742,5.742,0,0,0,269,420.693a6.283,6.283,0,0,0-3.469-1.973,5.656,5.656,0,0,0,3.057-5.356,5.4,5.4,0,0,0-.888-2.745,6.117,6.117,0,0,0-1.94-1.888,6.211,6.211,0,0,0-2.542-.844,27.7,27.7,0,0,0-4.23,0l-9.523.536Zm6.456-20.284q3.4-.192,4.116-0.15a2.759,2.759,0,0,1,1.859.735,2.616,2.616,0,0,1,.71,1.761,2.518,2.518,0,0,1-.6,1.9,3.19,3.19,0,0,1-1.894.962q-0.678.12-3.489,0.278l-3.153.177-0.309-5.509Zm1.654,9.411a16.36,16.36,0,0,1,4.285.1,2.947,2.947,0,0,1,1.564,1,3.111,3.111,0,0,1,.623,1.791,2.934,2.934,0,0,1-.561,2.061,2.982,2.982,0,0,1-1.693,1.049,21.838,21.838,0,0,1-3.291.332l-4.452.25-0.359-6.37Zm13-1.623a28.977,28.977,0,0,0,1.569,5.867,6.574,6.574,0,0,0,1.811,2.353,7.4,7.4,0,0,0,3.119,1.507,13.2,13.2,0,0,0,5.241-.17,12.213,12.213,0,0,0,4.38-1.549,7.278,7.278,0,0,0,2.406-2.425,6.724,6.724,0,0,0,.87-3.207,32.208,32.208,0,0,0-.724-6.041L288.3,403.765l-4.737.879,2.409,12.979a26.912,26.912,0,0,1,.531,4.023,3.313,3.313,0,0,1-.856,2.253,4.859,4.859,0,0,1-2.888,1.389,5.132,5.132,0,0,1-3.29-.292,3.864,3.864,0,0,1-1.878-2.044,26.8,26.8,0,0,1-.9-3.887l-2.359-12.707-4.737.88Zm36.022-2.336a4.825,4.825,0,0,1-2.77,2.177,5.287,5.287,0,0,1-4.617-.528q-2.139-1.327-3.528-5.634-1.31-4.057-.323-6.378a5.429,5.429,0,0,1,3.512-3.134,4.929,4.929,0,0,1,6.016,2.265l4.189-2.549a9.423,9.423,0,0,0-3.674-3.432,9.925,9.925,0,0,0-7.563-.278,10.548,10.548,0,0,0-6.686,5.621q-1.916,4.082-.086,9.751,1.731,5.359,5.639,7.509a11.24,11.24,0,0,0,13.883-3.061,10.477,10.477,0,0,0,1.618-6.619l-4.9.025A7.1,7.1,0,0,1,307.932,417.416Zm15.281-.672-4.45-9.437,8.539-4.026,4.449,9.436,4.358-2.054-10.177-21.582-4.358,2.055,4.006,8.494-8.538,4.026-4.006-8.494-4.357,2.055L318.856,418.8Zm23.844-12.684L341.088,386.6l13.86,12.194,4.25-2.838-8.435-23.06-4.033,2.694,6.212,15.893-12.736-11.536-4.764,3.183,5.476,16.052-12.094-11.632-4.1,2.74,17.99,16.677Zm10.834-38.417-3.775,3.421,9.136,23.921,3.787-3.432-2.18-5.338,7.067-6.4,5.183,2.618,3.884-3.52Zm5.366,14.6-3.558-8.725,8.382,4.354Zm29.924-17.5-3.029-2.644-7.878,9.024-14.8-12.92-3.168,3.629,17.826,15.564Zm1.621-2.047,5.124-7.478a14.589,14.589,0,0,0,1.994-3.8,8.463,8.463,0,0,0,.343-3.869,10.534,10.534,0,0,0-2.033-4.491,15.682,15.682,0,0,0-3.776-3.475,17.6,17.6,0,0,0-5.093-2.543,10.42,10.42,0,0,0-4.477-.305,7.99,7.99,0,0,0-3.846,1.725,17.236,17.236,0,0,0-2.943,3.488l-4.977,7.264ZM382.4,343.725a21.893,21.893,0,0,1,2.423-3.134,4.584,4.584,0,0,1,2.187-1.2,5.46,5.46,0,0,1,2.679.179,14.253,14.253,0,0,1,3.781,2,15.594,15.594,0,0,1,3.329,2.873,5.056,5.056,0,0,1,1.187,2.343,4.445,4.445,0,0,1-.281,2.165,13.117,13.117,0,0,1-1.458,2.532l-2.034,2.968-13.037-8.933Z"/>
  <path class="cls-10" d="M92.5,311a6.5,6.5,0,1,1-6.5,6.5A6.5,6.5,0,0,1,92.5,311Zm-13-32a6.5,6.5,0,1,1-6.5,6.5A6.5,6.5,0,0,1,79.5,279Zm340,0a6.5,6.5,0,1,1-6.5,6.5A6.5,6.5,0,0,1,419.5,279Zm-11,32a6.5,6.5,0,1,1-6.5,6.5A6.5,6.5,0,0,1,408.5,311Zm17-61a6.5,6.5,0,1,1-6.5,6.5A6.5,6.5,0,0,1,425.5,250Zm-351,0a6.5,6.5,0,1,1-6.5,6.5A6.5,6.5,0,0,1,74.5,250Z"/>
</svg>
