<svg xmlns="http://www.w3.org/2000/svg" width="500" height="500" viewBox="0 0 500 500">
  <defs>
    <style>
      .cls-1, .cls-2 {
        stroke: #000;
      }

      .cls-1 {
        stroke-width: 10px;
      }

      .cls-1, .cls-3 {
        fill-rule: evenodd;
      }

      .cls-2 {
        fill: #fff;
        stroke-width: 5px;
      }
    </style>
  </defs>
  <path id="Polygon_1" data-name="Polygon 1" class="cls-1" d="M401.75,401.75l-103.261-82.5L340.7,444.5,271.88,331.658,268.7,463.79,242.632,334.217,194.456,457.294l19.816-130.676L126.907,425.8l63.315-116.018L74.2,373.093l99.178-87.365L42.706,305.544l123.077-48.176L36.21,231.3l132.132-3.176L55.5,159.3l125.25,42.208L98.25,98.25l103.261,82.5L159.3,55.5,228.12,168.342,231.3,36.21l26.072,129.573L305.544,42.706,285.728,173.382,373.093,74.2,309.778,190.222,425.8,126.907l-99.178,87.365,130.676-19.816L334.217,242.632,463.79,268.7,331.658,271.88,444.5,340.7,319.25,298.489Z"/>
  <circle class="cls-2" cx="250" cy="250" r="169"/>
  <path class="cls-3" d="M106.994,250.39c0-13.389,11.871-21.415,23.742-21.415,6.885,0,13.4,2.292,18.757,4.583l0.769-.756c-7.665-7.654-11.871-13.378-11.871-21.032,0-9.551,7.654-16.052,19.91-16.052,23.357,0,48.627,21.786,55.512,27.905,2.68,2.292.77,5.352-2.678,3.06-3.065-1.909-12.245-6.118-19.911-6.118-5.743,0-9.566,1.907-9.566,6.885,0,6.108,7.655,9.551,13.4,13.763,2.68,1.522,1.912,3.814-1.538,3.058-2.3-.384-12.244-4.594-21.82-4.594-7.655,0-14.936,2.292-14.936,11.087s7.281,11.084,14.936,11.084c9.576,0,19.525-4.2,21.82-4.583,3.45-.767,4.218,1.535,1.538,3.06-5.744,4.21-13.4,7.642-13.4,13.76,0,4.584,3.823,6.886,9.566,6.886,7.666,0,16.846-4.21,19.911-6.119,3.448-2.292,5.358.769,2.678,3.061-6.885,6.118-32.155,27.9-55.512,27.9-12.256,0-19.91-6.5-19.91-16.052,0-7.655,4.206-13.389,11.871-21.031l-0.769-.768c-5.359,2.291-11.872,4.593-18.757,4.593-11.871,0-23.742-8.025-23.742-21.8V250.39Zm29.485-97.109c0-2.1,1.34-4.4,3.822-6.885,5.173-4.968,9.379-4.968,12.64-1.525,3.065,3.06,36.757,40.33,39.82,44.157a2.741,2.741,0,0,1-3.645,4.014c-4.591-3.061-43.456-29.245-49.2-33.257a6.935,6.935,0,0,1-3.437-6.119v-0.385Zm0.187,193.055c0-1.909,1.153-4.014,3.635-5.736,5.744-4.012,44.609-30.2,49.2-33.257a2.742,2.742,0,0,1,3.645,4.014c-3.065,3.827-36.758,41.1-39.821,44.156-3.26,3.443-7.468,3.443-12.639-1.525-2.482-2.291-4.02-4.978-4.02-7.269v-0.383ZM250.186,107.02c13.409,0,21.447,11.853,21.447,23.706,0,6.886-2.295,13.378-4.6,18.728l0.767,0.769c7.656-7.644,13.4-11.853,21.065-11.853,9.565,0,16.076,7.652,16.076,19.879,0,23.322-21.821,48.553-27.947,55.441-2.3,2.674-5.361.756-3.065-2.687,1.912-3.05,6.128-12.227,6.128-19.871,0-5.734-1.921-9.561-6.9-9.561-6.128,0-9.566,7.644-13.784,13.378-1.525,2.676-3.831,1.909-3.063-1.523,0.385-2.294,4.6-12.237,4.6-21.8,0-7.644-2.306-14.9-11.114-14.9s-11.1,7.259-11.1,14.9c0,9.562,4.216,19.5,4.6,21.8,0.757,3.432-1.538,4.2-3.065,1.523-4.216-5.734-7.654-13.378-13.782-13.378-4.6,0-6.9,3.827-6.9,9.561,0,7.644,4.216,16.821,6.128,19.871,2.3,3.443-.77,5.361-3.065,2.687-6.128-6.888-27.949-32.119-27.949-55.441,0-12.227,6.513-19.879,16.078-19.879,7.666,0,13.409,4.209,21.062,11.853l0.77-.769c-2.305-5.35-4.6-11.842-4.6-18.728,0-11.853,8.038-23.706,21.819-23.706h0.385ZM249.8,392.98c-13.4,0-21.437-11.853-21.437-23.706,0-6.875,2.3-13.376,4.593-18.728l-0.76-.767c-7.663,7.652-13.409,11.853-21.062,11.853-9.565,0-16.078-7.644-16.078-19.881,0-23.322,21.821-48.553,27.949-55.428,2.295-2.676,5.358-.769,3.063,2.676-1.91,3.058-6.128,12.225-6.128,19.879,0,5.735,2.295,9.551,6.9,9.551,6.118,0,9.566-7.644,13.782-13.378,1.527-2.676,3.822-1.907,3.063,1.536-0.383,2.291-4.6,12.226-4.6,21.788,0,7.642,2.295,14.911,11.1,14.911s11.1-7.269,11.1-14.911c0-9.562-4.207-19.5-4.59-21.788-0.77-3.443,1.525-4.212,3.063-1.536,4.208,5.734,7.656,13.378,13.784,13.378,4.973,0,6.9-3.816,6.9-9.551,0-7.654-4.218-16.821-6.128-19.879-2.3-3.445.757-5.352,3.063-2.676,6.128,6.875,27.949,32.106,27.949,55.428,0,12.237-6.513,19.881-16.089,19.881-7.653,0-13.4-4.2-21.052-11.853l-0.767.767c2.3,5.352,4.6,11.853,4.6,18.728,0,11.853-8.048,23.706-21.832,23.706H249.8Zm0-123.093a19.69,19.69,0,1,1,.385-39.379c10.344,0,19.152,8.785,19.152,19.882a19.522,19.522,0,0,1-19.152,19.5H249.8Zm143.2-19.123c0,13.386-11.871,21.414-23.742,21.414-6.887,0-13.4-2.291-18.759-4.594l-0.767.767c7.653,7.642,11.871,13.378,11.871,21.03,0,9.551-7.656,16.054-19.91,16.054-23.359,0-48.629-21.788-55.514-27.907-2.68-2.291-.768-5.35,2.68-3.058,3.063,1.907,12.245,6.119,19.909,6.119,5.743,0,9.566-2.294,9.566-6.888,0-6.117-7.656-9.551-13.4-13.76-2.678-1.525-1.91-3.828,1.528-3.061,2.305,0.385,12.256,4.6,21.832,4.6,7.653,0,14.923-2.3,14.923-11.086s-7.27-11.1-14.923-11.1c-9.576,0-19.527,4.211-21.832,4.594-3.438.768-4.206-1.534-1.528-3.059,5.743-4.211,13.4-7.644,13.4-13.762,0-4.966-3.823-6.886-9.566-6.886-7.664,0-16.846,4.212-19.909,6.119-3.448,2.292-5.36-.767-2.68-3.058,6.885-6.119,32.155-27.908,55.514-27.908,12.254,0,19.91,6.5,19.91,16.055,0,7.652-4.218,13.386-11.871,21.03l0.767,0.766c5.361-2.3,11.872-4.593,18.759-4.593,11.871,0,23.742,8.026,23.742,21.8v0.374Zm-28.717-96.911c0,1.918-1.34,3.825-3.833,5.547-5.743,4.014-44.6,30.2-49.2,33.257a2.737,2.737,0,0,1-3.636-4.012c3.063-3.827,36.756-41.1,39.821-44.156,3.251-3.445,7.466-3.445,12.629,1.533,2.68,2.479,4.218,4.968,4.218,7.446v0.385Zm0,192.866c0,1.92-1.538,4.593-4.218,6.885-5.163,4.968-9.378,4.968-12.629,1.525-3.065-3.058-36.758-40.33-39.821-44.157a2.737,2.737,0,0,1,3.636-4.012c4.6,3.059,43.456,29.254,49.2,33.268,2.493,1.71,3.833,3.817,3.833,6.108v0.383Z"/>
</svg>
