<svg xmlns="http://www.w3.org/2000/svg" width="1000" height="1000" viewBox="0 0 500 500">
  <defs>
    <style>
      .cls-1, .cls-3 {
        fill: #fff;
      }

      .cls-1, .cls-3, .cls-4 {
        stroke: #000;
        stroke-width: 10px;
      }

      .cls-1, .cls-2, .cls-4 {
        fill-rule: evenodd;
      }
    </style>
  </defs>
  <path class="cls-1" d="M493.076,249.945c0-26.838-21.758-50.566-48.617-48.668-10.053.7-39.815,7.7-73.132,16.177,33.09-9.308,62.369-18.123,71.428-22.528,24.212-11.783,31.181-43.207,17.754-66.438s-44.142-32.923-66.458-17.857c-8.343,5.639-30.63,26.56-55.235,50.55,24-24.591,44.949-46.857,50.584-55.2,15.085-22.3,5.384-52.993-17.863-66.413s-54.69-6.454-66.481,17.745c-4.407,9.05-13.228,38.292-22.537,71.342,8.475-33.274,15.478-63,16.187-73.045C300.6,28.766,276.84,7.03,250,7.03s-50.6,21.736-48.7,48.582c0.7,10.043,7.7,39.771,16.175,73.051-9.3-33.056-18.118-62.3-22.537-71.354-11.78-24.193-43.228-31.152-66.48-17.734s-32.943,44.1-17.875,66.407c5.646,8.341,26.57,30.59,50.572,55.178-24.593-23.981-46.863-44.9-55.217-50.53-22.31-15.066-53.026-5.38-66.453,17.857s-6.457,54.655,17.755,66.438c9.065,4.41,38.327,13.22,71.405,22.522-33.306-8.474-63.056-15.467-73.109-16.176-26.865-1.893-48.612,21.841-48.612,48.673s21.747,50.563,48.612,48.668c10.053-.71,39.8-7.7,73.1-16.171-33.078,9.3-62.34,18.109-71.4,22.516-24.207,11.777-31.17,43.2-17.749,66.444s44.143,32.914,66.453,17.854c8.354-5.636,30.624-26.563,55.229-50.541-24,24.59-44.938,46.845-50.584,55.189-15.068,22.3-5.372,52.99,17.875,66.408s54.7,6.456,66.48-17.741c4.419-9.052,13.234-38.3,22.549-71.356C209,404.5,202,434.228,201.3,444.271c-1.9,26.847,21.849,48.589,48.7,48.589s50.6-21.742,48.709-48.589c-0.715-10.043-7.712-39.784-16.2-73.07,9.314,33.061,18.13,62.318,22.548,71.37,11.791,24.2,43.234,31.155,66.481,17.741S404.485,416.2,389.4,393.9c-5.635-8.349-26.581-30.61-50.584-55.206,24.605,23.989,46.892,44.922,55.241,50.558,22.31,15.06,53.031,5.378,66.452-17.854s6.458-54.667-17.754-66.444c-9.059-4.407-38.332-13.225-71.423-22.527,33.312,8.474,63.074,15.466,73.127,16.176C471.318,300.508,493.076,276.775,493.076,249.945Z"/>
  <path class="cls-2" d="M292.831,264.841c8.358,4.5,120.23,50.827,126.655,55.328,10.923,3.867,19.284,14.8,19.284,27.034,0,6.431-6.429,21.23-23.148,21.23-10.922,0-17.348-3.867-23.777-6.431-6.426-3.871-109.937-74-109.937-74v1.937c6.429,6.431,73.938,89.424,80.363,97.791,4.494,8.365,10.923,18.667,10.923,29.6,0,16.733-17.348,23.167-25.709,23.167-12.226,0-23.148-8.368-29.574-25.1-3.868-9-50.789-104.226-54.657-112.59H260.7c0,8.364,17.348,116.457,17.348,129.322S275.483,470.1,250.4,470.1s-29.577-25.1-29.577-37.966c0-10.928,16.722-108.093,19.284-129.322l-2.562-1.938c-6.429,14.8-44.364,95.228-54.657,114.528-8.358,16.732-19.28,25.1-29.573,25.1-10.92,0-25.706-6.434-25.706-23.167,0-10.931,6.425-23.167,10.919-29.6,8.361-12.865,72.019-82.348,80.363-97.791L216.332,288S112.821,358.131,106.4,362c-3.868,4.5-12.226,6.431-20.57,6.431-19.3,0-25.726-12.862-25.726-18.666,0-14.8,10.293-25.731,19.284-29.6,6.443-4.5,118.3-50.831,126.655-53.395V262.9c-6.426,0-116.362,14.8-126.655,14.8-14.787,0-40.5-2.561-40.5-27.661,0-27.664,25.709-27.664,40.5-27.664,12.225,0,113.8,14.8,126.655,14.8l1.936-1.937c-10.294-4.5-116.366-48.894-128.591-55.325-8.99-3.871-19.284-14.8-19.284-27.038,0-17.362,10.293-27.664,23.148-27.664,4.494,0,8.361,0,12.855,1.934,25.081,12.865,114.448,82.992,120.229,84.929l2.562-1.937c-6.426-6.431-72-84.926-80.363-97.791-2.562-3.867-12.855-16.733-12.855-27.017,0-17.379,14.787-25.747,29.574-25.747,10.293,0,19.283,8.368,27.641,25.747,8.361,14.8,52.722,111.943,52.722,111.943h4.5S220.826,82.75,220.826,69.885c0-14.8,4.5-39.9,29.577-39.9s27.641,25.1,27.641,39.9c0,9-14.79,116.461-17.348,127.389h4.494c8.357-19.3,48.853-103.592,52.721-111.943,8.358-15.446,19.28-27.681,32.135-27.681,8.361,0,23.148,10.3,23.148,27.681,0,10.285-6.429,20.586-10.923,27.017-3.864,6.434-75.869,91.36-80.363,99.728l2.562,1.934c3.867-3.871,95.15-74,118.3-84.3,3.864-2.563,10.293-2.563,12.854-2.563,14.787,0,25.08,10.931,25.08,25.73s-8.361,23.167-19.28,27.038c-8.361,4.5-120.233,50.827-126.659,55.325l1.932,1.937c8.991-1.937,114.434-14.8,124.727-14.8,12.851-1.937,40.493,0,40.493,27.664,0,25.1-27.642,27.661-40.493,27.661-14.79,0-107.379-10.929-126.659-14.8Zm-29.577-12.865c0-3.871-4.493-12.236-12.851-12.236s-12.855,8.365-12.855,12.236c0,6.431,4.494,12.865,12.855,12.865S263.254,258.407,263.254,251.976Z"/>
  <circle class="cls-3" cx="250" cy="250" r="104"/>
  <path class="cls-4" d="M293.236,261.714c12.22-2.11,9.753-16.879,17.253-18C320.132,242.262,329.026,256,329.024,256s-3.908-20.168-18.993-18.381c-12.268,1.452-10.226,12.319-17.547,13.593-5.29.918-10.759-3.013-14.206-6.19a28.724,28.724,0,0,0,15.023-6.5c9.528-7.937.006-19.493,5.94-24.221,7.628-6.073,22.2,1.377,22.2,1.377s-13.468-15.512-25.639-6.42c-9.9,7.392-2.7,15.779-8.4,20.548-4.12,3.435-10.822,2.769-15.395,1.737a28.677,28.677,0,0,0,9.76-13.132c4.286-11.642-9.74-16.886-6.964-23.948,3.57-9.073,19.914-9.907,19.91-9.905s-19.419-6.7-25.412,7.257c-4.878,11.354,5.556,15.016,3,21.992-1.85,5.04-7.988,7.813-12.462,9.207a28.711,28.711,0,0,0,1.883-16.257c-2.108-12.218-16.877-9.751-18-17.251C242.264,179.866,256,170.974,256,170.974s-20.165,3.908-18.379,19c1.454,12.267,12.319,10.226,13.593,17.546,0.918,5.289-3.012,10.757-6.192,14.2a28.68,28.68,0,0,0-6.5-15.017c-7.935-9.528-19.493-.007-24.217-5.942-6.075-7.629,1.375-22.2,1.373-22.2s-15.51,13.469-6.416,25.643c7.39,9.9,15.779,2.7,20.54,8.4,3.443,4.124,2.773,10.824,1.741,15.4a28.661,28.661,0,0,0-13.134-9.76c-11.636-4.287-16.886,9.74-23.944,6.964-9.073-3.568-9.909-19.913-9.909-19.913s-6.7,19.423,7.263,25.417c11.348,4.876,15.015-5.556,21.988-3,5.042,1.85,7.813,7.99,9.207,12.462a28.738,28.738,0,0,0-16.255-1.885c-12.22,2.11-9.751,16.883-17.253,18.008C179.866,257.734,170.974,244,170.976,244s3.908,20.167,19,18.377c12.267-1.45,10.225-12.317,17.542-13.589,5.291-.921,10.763,3.01,14.207,6.19a28.7,28.7,0,0,0-15.021,6.5c-9.53,7.935-.005,19.493-5.94,24.219-7.627,6.073-22.2-1.376-22.2-1.376s13.467,15.511,25.639,6.418c9.9-7.389,2.7-15.78,8.4-20.543,4.12-3.44,10.823-2.769,15.4-1.741a28.7,28.7,0,0,0-9.76,13.136c-4.285,11.636,9.74,16.886,6.964,23.944-3.568,9.075-19.913,9.907-19.91,9.907s19.42,6.7,25.414-7.262c4.874-11.347-5.558-15.012-3-21.987,1.849-5.044,7.986-7.813,12.462-9.209a28.719,28.719,0,0,0-1.883,16.258c2.108,12.221,16.879,9.751,18,17.254C257.736,320.13,244,329.026,244,329.022s20.168-3.908,18.379-19c-1.454-12.265-12.319-10.225-13.6-17.543-0.918-5.292,3.015-10.761,6.192-14.207a28.7,28.7,0,0,0,6.5,15.022c7.937,9.53,19.493.006,24.217,5.939,6.075,7.628-1.374,22.2-1.374,22.2s15.513-13.471,6.419-25.64c-7.39-9.9-15.781-2.7-20.546-8.4-3.439-4.122-2.77-10.826-1.739-15.4a28.682,28.682,0,0,0,13.136,9.76c11.638,4.286,16.886-9.738,23.944-6.962,9.074,3.566,9.909,19.912,9.907,19.91s6.7-19.421-7.259-25.415c-11.35-4.875-15.015,5.555-21.992,3-5.042-1.849-7.812-7.987-9.207-12.463A28.728,28.728,0,0,0,293.236,261.714ZM250,273.8A23.8,23.8,0,1,1,273.8,250,23.8,23.8,0,0,1,250,273.8ZM229.394,250A20.606,20.606,0,1,1,250,270.6,20.606,20.606,0,0,1,229.394,250Z"/>
  <circle class="cls-3" cx="250" cy="250" r="36"/>
  <path class="cls-4" d="M276,250l-0.968-1.671h-4.449l1.572-2.767-0.939-1.62h-1.878l-2.493,4.387h-1.736l1.333-2.346-0.939-1.619h-1.878l-1.136,2-2.835-4.888,2.309,0.019,0.939-1.62-0.939-1.618-2.708-.025,0.869-1.5,5.061,0.044,0.939-1.619-0.939-1.62L262,233.512l2.225-3.837-0.968-1.67h-1.938l-2.224,3.836-1.621-2.739h-1.877l-0.94,1.62,2.57,4.343-0.868,1.5-1.374-2.322H253.1l-0.939,1.62,1.172,1.98h-5.669l1.171-1.98-0.939-1.62H246.02l-1.374,2.322-0.868-1.5,2.569-4.343-0.938-1.62H243.53l-1.62,2.739-2.225-3.836h-1.937l-0.968,1.67L239,233.512l-3.192.028-0.939,1.62,0.939,1.62,5.061-.045,0.868,1.5-2.706.025-0.939,1.619,0.939,1.619,2.307-.019-2.833,4.888-1.137-2h-1.878l-0.939,1.62,1.333,2.346h-1.737l-2.492-4.388h-1.877l-0.939,1.619,1.572,2.768h-4.449L225,250l0.969,1.67h4.449l-1.572,2.768,0.939,1.62h1.877l2.492-4.387h1.736l-1.332,2.345,0.939,1.62h1.878l1.137-2,2.834,4.889-2.308-.02-0.939,1.62,0.939,1.619,2.706,0.023-0.868,1.5-5.061-.045-0.939,1.62,0.939,1.62L239,266.488l-2.224,3.837,0.969,1.67h1.936l2.225-3.838,1.621,2.741h1.878l0.939-1.62-2.57-4.343,0.868-1.5,1.374,2.323H247.9l0.94-1.619-1.172-1.981h5.669l-1.172,1.98,0.939,1.62h1.878l1.374-2.323,0.868,1.5-2.57,4.343,0.94,1.619h1.877l1.622-2.74L261.316,272h1.936l0.968-1.67L262,266.487l3.193-.028,0.939-1.619-0.939-1.62-5.061.044-0.868-1.5,2.706-.023,0.94-1.621-0.939-1.619-2.309.02,2.835-4.888,1.136,2h1.878l0.939-1.62-1.333-2.346h1.736l2.493,4.388h1.878l0.939-1.62-1.572-2.768h4.449Z"/>
</svg>
