<svg xmlns="http://www.w3.org/2000/svg" width="500" height="500" viewBox="0 0 500 500">
  <defs>
    <style>
      .cls-1, .cls-2, .cls-3, .cls-6 {
        stroke: #000;
      }

      .cls-1, .cls-2, .cls-3, .cls-4, .cls-5, .cls-6 {
        stroke-width: 5px;
      }

      .cls-1, .cls-2, .cls-5 {
        fill-rule: evenodd;
      }

      .cls-2, .cls-5 {
        fill: #ec008c;
      }

      .cls-4, .cls-6 {
        fill: #92278f;
      }

      .cls-4 {
        stroke: #92278f;
      }

      .cls-5 {
        stroke: #ec008c;
      }
    </style>
  </defs>
  <path id="Polygon_1" data-name="Polygon 1" class="cls-1" d="M250,486.75L230.741,340.606,153.705,466.282,195.553,324.94,74.061,408.417l95.72-112.1L24.837,323.16l133.04-63.477-143.33-34.43L161.9,221.376,44.969,131.625l136.194,56.393L110.842,58.465,212.324,165.378,200.777,18.424,250,157.369,299.223,18.424,287.676,165.378,389.158,58.465l-70.32,129.553,136.194-56.393L338.1,221.376l147.356,3.877-143.33,34.43,133.04,63.477L330.22,296.315l95.72,112.1L304.447,324.94,346.3,466.282,269.259,340.606Z"/>
  <path id="Polygon_2" data-name="Polygon 2" class="cls-2" d="M250,21.75l18.568,140.9,74.27-121.164L302.492,177.751l117.131-80.48L327.34,205.348l139.739-25.881-128.263,61.2L477,273.859,334.934,277.6,447.67,364.125l-131.3-54.368,67.8,124.9L286.324,331.584l11.132,141.678L250,339.305,202.544,473.262l11.132-141.678L115.838,434.658l67.8-124.9L52.33,364.125,165.066,277.6,23,273.859l138.184-33.194-128.263-61.2L172.66,205.348,80.377,97.271l117.131,80.48L157.162,41.483l74.27,121.164Z"/>
  <circle class="cls-3" cx="250" cy="250" r="100"/>
  <circle class="cls-4" cx="250" cy="250" r="80"/>
  <path id="Polygon_3" data-name="Polygon 3" class="cls-1" d="M227.527,288.925Q137.634,314.875,205.053,250q-67.419-64.875,22.474-38.925,22.473-90.825,44.946,0,89.893-25.95,22.474,38.925,67.419,64.875-22.474,38.925Q250,379.75,227.527,288.925Z"/>
  <path id="Polygon_4" data-name="Polygon 4" class="cls-5" d="M263.553,226.525Q317.766,210.876,277.107,250q40.659,39.125-13.554,23.475-13.553,54.775-27.106,0Q182.234,289.125,222.893,250q-40.659-39.125,13.554-23.475Q250,171.75,263.553,226.525Z"/>
  <circle class="cls-6" cx="250" cy="250" r="16"/>
</svg>
