<svg xmlns="http://www.w3.org/2000/svg" width="500" height="500" viewBox="0 0 500 500">
  <defs>
    <style>
      .cls-1, .cls-3, .cls-4 {
        fill: #ec008c;
      }

      .cls-1 {
        stroke: #ec008c;
      }

      .cls-1, .cls-4, .cls-5 {
        stroke-width: 5px;
      }

      .cls-1, .cls-2, .cls-3 {
        fill-rule: evenodd;
      }

      .cls-4, .cls-5 {
        stroke: #000;
      }
    </style>
  </defs>
  <path id="Polygon_1" data-name="Polygon 1" class="cls-1" d="M280.22,117.6Q401.1-63.763,334.675,143.821q187.6-110.951,37.683,47.254Q589.519,172.508,385.807,250q203.712,77.493-13.449,58.925,149.915,158.2-37.683,47.254Q401.1,563.763,280.22,382.4q-30.221,215.849-60.44,0Q98.9,563.763,165.325,356.179q-187.6,110.951-37.683-47.254Q-89.519,327.492,114.193,250q-203.712-77.493,13.449-58.925Q-22.273,32.87,165.325,143.821,98.9-63.762,219.78,117.6,250-98.25,280.22,117.6Z"/>
  <path id="Polygon_2" data-name="Polygon 2" class="cls-2" d="M276.055,135.847Q380.274-20.516,323,158.456,484.745,62.8,355.493,199.2q187.23-16.01,11.6,50.8,175.633,66.812-11.6,50.8Q484.745,437.2,323,341.544q57.27,178.972-46.949,22.609-26.055,186.1-52.11,0Q119.727,520.516,177,341.544,15.255,437.2,144.507,300.8q-187.229,16.01-11.6-50.8-175.633-66.811,11.6-50.8Q15.255,62.8,177,158.456q-57.27-178.972,46.949-22.609Q250-50.25,276.055,135.847Z"/>
  <path id="Polygon_3" data-name="Polygon 3" class="cls-2" d="M365.864,276.445Q524.57,382.227,342.916,324.1q97.092,164.164-41.352,32.976Q317.814,547.109,250,368.844q-67.813,178.265-51.564-11.77Q59.992,488.264,157.084,324.1q-181.654,58.128-22.948-47.653-188.886-26.445,0-52.89Q-24.57,117.773,157.084,175.9,59.992,11.737,198.436,142.926,182.187-47.109,250,131.156q67.813-178.265,51.564,11.77Q440.008,11.737,342.916,175.9q181.655-58.128,22.948,47.653Q554.75,250,365.864,276.445Z"/>
  <path id="Polygon_4" data-name="Polygon 4" class="cls-3" d="M343.813,271.412q128.5,85.649-18.581,38.584,78.613,132.921-33.481,26.7Q304.908,490.563,250,346.225q-54.907,144.339-41.751-9.529Q96.154,442.917,174.768,310,27.686,357.06,156.187,271.412,3.25,250,156.187,228.588,27.686,142.94,174.768,190,96.154,57.083,208.249,163.3,195.093,9.437,250,153.775,304.908,9.436,291.751,163.3q112.1-106.221,33.481,26.7,147.082-47.064,18.581,38.584Q496.75,250,343.813,271.412Z"/>
  <path id="Polygon_5" data-name="Polygon 5" class="cls-3" d="M271.369,156.377q85.474-128.24,38.5,18.543,132.653-78.454,26.646,33.414Q490.077,195.2,346.03,250q144.047,54.8-9.51,41.666,106.006,111.868-26.646,33.414,46.969,146.784-38.5,18.543-21.369,152.627-42.738,0-85.474,128.241-38.5-18.543Q57.474,403.535,163.48,291.666,9.924,304.8,153.97,250q-144.046-54.8,9.51-41.666Q57.474,96.465,190.126,174.92q-46.97-146.783,38.5-18.543Q250,3.75,271.369,156.377Z"/>
  <circle class="cls-4" cx="250" cy="250" r="113"/>
  <circle class="cls-4" cx="250" cy="250" r="89"/>
  <circle class="cls-5" cx="250" cy="250" r="26"/>
</svg>
