<svg xmlns="http://www.w3.org/2000/svg" width="500" height="500" viewBox="0 0 500 500">
  <defs>
    <style>
      .cls-1, .cls-2 {
        stroke: #000;
        stroke-width: 5px;
      }

      .cls-1 {
        fill-rule: evenodd;
      }

      .cls-2 {
        fill: #fff;
      }
    </style>
  </defs>
  <path id="Polygon_1" data-name="Polygon 1" class="cls-1" d="M413.75,413.75L302.324,324.726,347.869,459.88,273.61,338.115,270.183,480.7,242.049,340.877l-51.986,132.81,21.384-141.01L117.173,439.7,185.5,314.505,60.3,382.827l107.02-94.274L26.313,309.937l132.81-51.986L19.3,229.817l142.581-3.427L40.12,152.131l135.154,45.545L86.25,86.25l111.426,89.024L152.131,40.12,226.39,161.885,229.817,19.3l28.134,139.819,51.986-132.81-21.384,141.01L382.827,60.3,314.505,185.5,439.7,117.173l-107.02,94.274,141.01-21.384-132.81,51.986L480.7,270.183,338.115,273.61,459.88,347.869,324.726,302.324Z"/>
  <circle class="cls-2" cx="250" cy="250" r="185"/>
  <path id="Polygon_2" data-name="Polygon 2" class="cls-1" d="M322.75,322.75l-49.5-39.551,20.235,60.046-32.991-54.1-1.523,63.346-12.5-62.119-23.1,59,9.5-62.647-41.884,47.547,30.354-55.62-55.62,30.354,47.547-41.884-62.647,9.5,59-23.1-62.119-12.5,63.346-1.523-54.1-32.991L216.8,226.754l-39.551-49.5,49.5,39.551-20.235-60.046,32.991,54.1,1.523-63.346,12.5,62.119,23.1-59-9.5,62.647,41.884-47.547-30.354,55.62,55.62-30.354-47.547,41.884,62.647-9.5-59,23.1,62.119,12.5-63.346,1.523,54.1,32.991L283.2,273.246Z"/>
</svg>
