<svg xmlns="http://www.w3.org/2000/svg" width="500" height="500" viewBox="0 0 500 500">
  <defs>
    <style>
      .cls-1 {
        fill-rule: evenodd;
      }

      .cls-2, .cls-3 {
        fill: #fff;
      }

      .cls-2 {
        stroke: #000;
        stroke-width: 6px;
      }
    </style>
  </defs>
  <path id="Polygon_1" data-name="Polygon 1" class="cls-1" d="M250,448.75L233.832,326.063l-64.671,105.5,35.131-118.656L102.3,382.99l80.355-94.109L60.978,311.417l111.686-53.289-120.324-28.9,123.7-3.255L77.878,150.625l114.334,47.342L133.178,89.208l85.193,89.752L208.678,55.593,250,172.237,291.322,55.593,281.629,178.96l85.193-89.752L307.789,197.967l114.334-47.342L323.957,225.97l123.7,3.255-120.324,28.9,111.685,53.289L317.345,288.881,397.7,382.99,295.708,312.911l35.131,118.656-64.671-105.5Z"/>
  <circle class="cls-2" cx="250" cy="250" r="170"/>
  <circle cx="250" cy="250" r="98"/>
  <circle class="cls-3" cx="250" cy="250" r="33"/>
  <path class="cls-1" d="M249.994,283a33,33,0,1,1,33-33A33.032,33.032,0,0,1,249.994,283Zm0-62.97A29.971,29.971,0,1,0,279.97,250,30,30,0,0,0,249.994,220.029ZM236.651,271.6l12.916-21.716-12.916-21.041,37.03,21.376Z"/>
</svg>
