<svg xmlns="http://www.w3.org/2000/svg" width="500" height="500" viewBox="0 0 500 500">
  <defs>
    <style>
      .cls-1, .cls-2 {
        fill-rule: evenodd;
      }

      .cls-2 {
        fill: #fff;
      }
    </style>
  </defs>
  <path class="cls-1" d="M478.072,249.948c0-25.181-20.416-47.444-45.617-45.663-9.432.66-37.357,7.227-68.617,15.178,31.047-8.734,58.518-17,67.018-21.137,22.718-11.056,29.257-40.54,16.659-62.337S406.1,105.1,385.159,119.234c-7.828,5.291-28.739,24.921-51.825,47.429,22.521-23.073,42.174-43.964,47.461-51.79,14.154-20.927,5.052-49.722-16.76-62.313S312.721,46.5,301.658,69.21c-4.136,8.491-12.412,35.928-21.146,66.938,7.951-31.22,14.522-59.113,15.188-68.536,1.774-25.189-20.517-45.583-45.7-45.583s-47.471,20.394-45.691,45.583c0.661,9.423,7.226,37.316,15.177,68.542-8.729-31.016-17-58.453-21.146-66.95-11.053-22.7-40.56-29.229-62.377-16.64s-30.909,41.382-16.771,62.308c5.3,7.826,24.93,28.7,47.451,51.772-23.075-22.5-43.971-42.127-51.81-47.411C93.9,105.1,65.078,114.186,52.48,135.989s-6.059,51.281,16.659,62.337c8.505,4.138,35.961,12.4,67,21.131-31.25-7.951-59.164-14.512-68.6-15.177-25.207-1.776-45.612,20.492-45.612,45.668s20.4,47.443,45.612,45.664c9.432-.666,37.341-7.227,68.585-15.172-31.037,8.723-58.492,16.99-66.992,21.126C46.421,312.616,39.887,342.1,52.48,363.908S93.9,394.791,114.83,380.66c7.839-5.288,28.735-24.924,51.82-47.421-22.521,23.072-42.164,43.953-47.461,51.782-14.138,20.921-5.041,49.719,16.771,62.308s51.324,6.058,62.377-16.645c4.146-8.494,12.417-35.933,21.157-66.951-7.962,31.228-14.527,59.123-15.188,68.546-1.78,25.19,20.5,45.589,45.691,45.589s47.477-20.4,45.7-45.589c-0.672-9.423-7.237-37.328-15.2-68.56,8.74,31.021,17.011,58.471,21.157,66.965,11.063,22.7,40.565,29.232,62.377,16.645s30.914-41.387,16.76-62.308c-5.287-7.833-24.94-28.72-47.461-51.8,23.086,22.508,44,42.149,51.831,47.437,20.932,14.131,49.757,5.046,62.35-16.752s6.059-51.292-16.659-62.342c-8.5-4.136-35.966-12.409-67.013-21.137,31.255,7.951,59.18,14.511,68.612,15.177C457.656,297.391,478.072,275.122,478.072,249.948Z"/>
  <path class="cls-2" d="M454.064,249.954c0-22.531-18.266-42.45-40.815-40.857-8.439.591-33.424,6.466-61.394,13.58,27.779-7.814,52.359-15.214,59.964-18.912,20.326-9.892,26.177-36.272,14.9-55.775S389.666,120.351,370.932,133c-7,4.734-25.715,22.3-46.37,42.437,20.15-20.645,37.735-39.337,42.465-46.339,12.664-18.724,4.52-44.488-15-55.754s-45.912-5.418-55.811,14.9c-3.7,7.6-11.105,32.147-18.92,59.893,7.114-27.935,12.993-52.891,13.589-61.322C292.477,64.273,272.532,46.026,250,46.026s-42.475,18.247-40.882,40.785c0.591,8.431,6.465,33.387,13.579,61.327-7.81-27.751-15.21-52.3-18.92-59.9-9.889-20.31-36.29-26.152-55.811-14.888s-27.655,37.026-15,55.75c4.739,7,22.305,25.68,42.455,46.322-20.646-20.132-39.342-37.693-46.355-42.42-18.729-12.648-44.516-4.517-55.788,14.991s-5.421,45.883,14.905,55.775c7.61,3.7,32.176,11.1,59.946,18.907-27.961-7.114-52.936-12.984-61.376-13.58-22.553-1.588-40.81,18.336-40.81,40.862s18.257,42.448,40.81,40.857c8.44-.6,33.411-6.466,61.366-13.576-27.77,7.805-52.335,15.2-59.94,18.9-20.322,9.887-26.168,36.268-14.9,55.78s37.059,27.632,55.788,14.988c7.013-4.731,25.709-22.3,46.365-42.429-20.15,20.644-37.726,39.327-42.465,46.331-12.65,18.719-4.511,44.486,15,55.75s45.922,5.42,55.811-14.893c3.71-7.6,11.11-32.151,18.93-59.9-7.124,27.941-13,52.9-13.589,61.331-1.593,22.538,18.343,40.79,40.882,40.79s42.479-18.252,40.891-40.79c-0.6-8.431-6.475-33.4-13.6-61.343,7.819,27.755,15.22,52.316,18.929,59.916,9.9,20.313,36.295,26.155,55.811,14.893s27.66-37.031,15-55.75c-4.73-7.009-22.315-25.7-42.465-46.345,20.655,20.138,39.365,37.712,46.375,42.443,18.729,12.644,44.52,4.515,55.787-14.988s5.421-45.893-14.9-55.78c-7.605-3.7-32.18-11.1-59.96-18.912,27.966,7.114,52.951,12.984,61.39,13.58C435.8,292.4,454.064,272.478,454.064,249.954Z"/>
  <path class="cls-1" d="M437.059,249.957c0-20.652-16.745-38.912-37.414-37.451-7.736.541-30.639,5.927-56.278,12.448,25.464-7.163,48-13.946,54.967-17.336,18.633-9.067,24-33.25,13.663-51.127s-33.97-25.336-51.143-13.742c-6.42,4.34-23.571,20.439-42.506,38.9,18.471-18.924,34.591-36.058,38.927-42.477,11.608-17.163,4.143-40.78-13.746-51.108S301.442,83.1,292.368,101.72c-3.391,6.965-10.179,29.468-17.343,54.9,6.521-25.607,11.911-48.483,12.457-56.212C288.937,79.75,270.654,63.023,250,63.023S211.063,79.75,212.523,100.41c0.542,7.729,5.927,30.6,12.448,56.216-7.16-25.438-13.943-47.941-17.344-54.91-9.065-18.618-33.266-23.973-51.16-13.648s-25.35,33.941-13.755,51.1c4.345,6.419,20.447,23.541,38.918,42.462-18.926-18.454-36.064-34.552-42.493-38.885-17.168-11.594-40.806-4.14-51.138,13.742s-4.969,42.06,13.663,51.127c6.975,3.394,29.494,10.173,54.95,17.332-25.631-6.522-48.525-11.9-56.261-12.449-20.674-1.456-37.41,16.808-37.41,37.456s16.735,38.912,37.41,37.453c7.736-.546,30.626-5.927,56.252-12.444-25.456,7.154-47.974,13.935-54.945,17.327C83.029,301.356,77.671,325.539,88,343.425s33.97,25.329,51.138,13.739c6.429-4.337,23.567-20.442,42.5-38.893-18.471,18.923-34.582,36.049-38.927,42.47-11.595,17.159-4.134,40.778,13.755,51.1s42.1,4.968,51.16-13.652c3.4-6.967,10.184-29.472,17.353-54.912-6.53,25.612-11.915,48.491-12.457,56.22-1.46,20.66,16.814,37.391,37.475,37.391s38.939-16.731,37.484-37.391c-0.551-7.729-5.936-30.616-12.466-56.231,7.168,25.442,13.952,47.956,17.352,54.923,9.074,18.62,33.271,23.975,51.161,13.652s25.354-33.945,13.746-51.1c-4.336-6.425-20.456-23.556-38.927-42.483,18.935,18.46,36.086,34.569,42.511,38.906,17.168,11.59,40.81,4.138,51.138-13.739s4.97-42.069-13.663-51.132c-6.972-3.392-29.5-10.177-54.963-17.336,25.635,6.521,48.538,11.9,56.274,12.448C420.314,288.869,437.059,270.605,437.059,249.957Z"/>
  <path class="cls-2" d="M392.045,249.968c0-15.683-12.715-29.549-28.411-28.44-5.874.412-23.266,4.5-42.735,9.453,19.336-5.439,36.446-10.59,41.74-13.164,14.148-6.886,18.221-25.249,10.375-38.824s-25.8-19.239-38.836-10.435c-4.876,3.3-17.9,15.521-32.277,29.539,14.026-14.37,26.266-27.381,29.559-32.255,8.815-13.033,3.146-30.967-10.438-38.809s-31.959-3.771-38.849,10.37c-2.576,5.288-7.73,22.376-13.17,41.689,4.952-19.444,9.044-36.816,9.459-42.685,1.105-15.688-12.778-28.389-28.464-28.389s-29.565,12.7-28.457,28.389c0.412,5.869,4.5,23.241,9.453,42.689-5.437-19.317-10.588-36.4-13.17-41.7-6.884-14.137-25.261-18.2-38.849-10.363s-19.25,25.773-10.445,38.806c3.3,4.874,15.527,17.876,29.553,32.244-14.372-14.014-27.385-26.237-32.268-29.528-13.037-8.8-30.986-3.144-38.832,10.435s-3.774,31.938,10.375,38.824c5.3,2.577,22.4,7.725,41.727,13.161-19.463-4.952-36.848-9.038-42.722-9.453-15.7-1.106-28.408,12.763-28.408,28.443s12.709,29.547,28.408,28.439c5.874-.414,23.256-4.5,42.715-9.449-19.33,5.433-36.429,10.582-41.723,13.157-14.146,6.882-18.215,25.246-10.372,38.828s25.795,19.234,38.832,10.433c4.883-3.294,17.9-15.523,32.274-29.534-14.026,14.369-26.26,27.374-29.559,32.25-8.805,13.03-3.14,30.965,10.445,38.806s31.965,3.773,38.849-10.367c2.582-5.29,7.733-22.379,13.176-41.7-4.958,19.45-9.047,36.823-9.459,42.692-1.108,15.688,12.768,28.393,28.457,28.393s29.569-12.7,28.464-28.393c-0.418-5.869-4.507-23.249-9.466-42.7,5.443,19.32,10.6,36.416,13.177,41.706,6.89,14.14,25.264,18.206,38.849,10.367s19.253-25.776,10.438-38.806c-3.293-4.879-15.533-17.887-29.559-32.26,14.378,14.018,27.4,26.25,32.281,29.544,13.036,8.8,30.989,3.142,38.832-10.433s3.773-31.946-10.375-38.828c-5.294-2.575-22.4-7.728-41.737-13.164,19.466,4.952,36.858,9.038,42.732,9.453C379.33,279.515,392.045,265.646,392.045,249.968Z"/>
  <path class="cls-1" d="M272.016,258.224c4.347,2.341,62.531,26.453,65.873,28.8a15.251,15.251,0,0,1,10.029,14.07,11.945,11.945,0,0,1-12.039,11.049c-5.681,0-9.023-2.013-12.366-3.347-3.342-2.015-57.178-38.513-57.178-38.513v1.009c3.344,3.347,38.455,46.54,41.8,50.895,2.337,4.354,5.68,9.715,5.68,15.405,0,8.708-9.022,12.057-13.371,12.057-6.358,0-12.039-4.355-15.381-13.064-2.011-4.683-26.415-54.244-28.427-58.6H255.3c0,4.354,9.023,60.611,9.023,67.307s-1.333,19.759-14.377,19.759-15.382-13.063-15.382-19.759c0-5.688,8.7-56.257,10.029-67.307l-1.332-1.008c-3.344,7.7-23.074,49.562-28.427,59.606-4.347,8.709-10.028,13.064-15.381,13.064-5.679,0-13.37-3.349-13.37-12.057,0-5.69,3.342-12.058,5.679-15.405,4.349-6.695,37.457-42.858,41.8-50.895l-1.332-1.009s-53.836,36.5-57.178,38.513c-2.011,2.341-6.358,3.347-10.7,3.347-10.036,0-13.38-6.694-13.38-9.715A17.242,17.242,0,0,1,161,287.02c3.351-2.343,61.526-26.455,65.873-27.79v-2.014c-3.342,0-60.519,7.7-65.873,7.7-7.69,0-21.062-1.333-21.062-14.4,0-14.4,13.372-14.4,21.062-14.4,6.359,0,59.187,7.7,65.873,7.7l1.007-1.008c-5.354-2.341-60.521-25.447-66.88-28.794-4.676-2.015-10.029-7.7-10.029-14.072,0-9.036,5.353-14.4,12.039-14.4a15.486,15.486,0,0,1,6.686,1.007c13.044,6.695,59.523,43.193,62.531,44.2l1.332-1.008c-3.342-3.347-37.448-44.2-41.8-50.9-1.332-2.012-6.685-8.708-6.685-14.061,0-9.045,7.69-13.4,15.381-13.4,5.353,0,10.029,4.355,14.376,13.4,4.349,7.7,27.42,58.261,27.42,58.261H244.6s-10.029-59.6-10.029-66.3c0-7.7,2.338-20.766,15.382-20.766s14.377,13.064,14.377,20.766c0,4.683-7.693,60.613-9.023,66.3h2.337c4.347-10.042,25.409-53.915,27.42-58.261,4.347-8.039,10.028-14.407,16.713-14.407,4.349,0,12.039,5.362,12.039,14.407,0,5.353-3.343,10.714-5.68,14.061-2.01,3.349-39.46,47.549-41.8,51.9l1.333,1.007c2.011-2.015,49.486-38.513,61.526-43.874,2.009-1.334,5.353-1.334,6.685-1.334,7.691,0,13.044,5.689,13.044,13.391s-4.348,12.057-10.027,14.072c-4.349,2.34-62.533,26.453-65.875,28.794l1,1.008c4.676-1.008,59.516-7.7,64.87-7.7,6.683-1.008,21.06,0,21.06,14.4,0,13.063-14.377,14.4-21.06,14.4-7.693,0-55.847-5.688-65.875-7.7Zm-15.383-6.7c0-2.014-2.337-6.368-6.684-6.368s-6.685,4.354-6.685,6.368A6.685,6.685,0,1,0,256.633,251.528Z"/>
  <circle cx="250" cy="250" r="64"/>
  <path class="cls-2" d="M214.487,219.033c-1.8,0-4.5-2.867-4.5-4.5s2.7-4.5,4.5-4.5,4.506,2.867,4.506,4.5S216.29,219.033,214.487,219.033Zm-4.177,66.273c0-1.8,2.785-4.5,4.5-4.5s4.5,2.7,4.5,4.5-2.785,4.5-4.5,4.5S210.31,287.108,210.31,285.306Zm12.777-57.587c-1.8,0-4.5-2.785-4.5-4.508s2.705-4.505,4.5-4.505,4.588,2.785,4.588,4.505S224.89,227.719,223.087,227.719Zm-4.422,49.232c0-1.8,2.785-4.5,4.5-4.5s4.505,2.7,4.505,4.5-2.785,4.5-4.505,4.5S218.665,278.754,218.665,276.951Zm18.35-44.4c0-7.865,5.077-13.352,13.187-13.352s12.863,5.57,12.863,13.352h0.162c0-.655,2.213-5,4.836-5,1.8,0,4.67,2.95,4.67,4.67,0,2.7-4.343,4.832-5,4.915V237.3c7.862,0,13.435,4.67,13.435,12.78s-5.573,13.19-13.435,13.19v0.163c0.41,0,5,2.047,5,4.835,0,1.637-2.213,4.422-4.426,4.422-2.7,0-4.832-4.587-4.832-5H263.31c0,7.865-5,13.435-13.108,13.435-8.189,0-12.859-5.57-12.859-13.435h-0.166c-0.08.655-2.21,5-4.832,5-1.8,0-4.75-2.95-4.75-4.67,0-2.62,4.422-4.832,5.078-4.832v-0.166c-7.866,0-13.436-4.749-13.436-12.859s5.49-13.19,13.353-13.19v-0.163c-0.327,0-4.915-2.047-4.915-4.832,0-2.213,2.95-4.343,4.342-4.343,2.786,0,4.915,4.588,4.833,4.915h0.165Zm6.635,10.978a4.151,4.151,0,0,1-2.868,1.637c-1.964,0-3.605-1.965-4.5-4.832a2.592,2.592,0,0,0-1.148-.165c-2.213,0-6.308,2.212-6.308,4.752,0,1.72,1.558,3.685,4.67,5.243-3.112,1.557-4.67,3.684-4.67,5.487,0,2.623,3.851,4.425,6.063,4.425a3.863,3.863,0,0,0,1.393-.245c0.737-2.705,2.622-4.835,4.5-4.835,1.8,0,4.5,2.785,4.5,4.5,0,1.968-2.13,3.77-4.832,4.587a3.427,3.427,0,0,0-.245,1.313c0,2.21,1.8,6.06,4.422,6.06,1.8,0,3.933-1.555,5.57-4.585,1.558,3.03,3.523,4.585,5.245,4.585,2.458,0,4.75-4.1,4.75-6.307a2.623,2.623,0,0,0-.245-1.145c-2.867-.9-4.752-2.458-4.752-4.425a4.188,4.188,0,0,1,1.558-2.868,4.361,4.361,0,0,1,2.867-1.555c1.965,0,3.522,1.883,4.422,4.75a2.983,2.983,0,0,0,1.23.248c2.13,0,6.225-2.3,6.225-4.836,0-1.637-1.474-3.6-4.587-5.242,3.113-1.555,4.587-3.685,4.587-5.487,0-2.623-3.85-4.425-5.979-4.425a3.8,3.8,0,0,0-1.393.247c-0.737,2.7-2.623,4.833-4.588,4.833-1.719,0-4.5-2.7-4.5-4.5,0-1.885,2.13-3.77,4.915-4.508a3.831,3.831,0,0,0,.245-1.393c0-2.209-1.8-6.06-4.5-6.06-1.8,0-3.851,1.556-5.491,4.668-1.554-3.112-3.522-4.668-5.242-4.668-2.457,0-4.75,4.095-4.75,6.308a4.867,4.867,0,0,0,.163,1.145c2.867,0.9,4.834,2.458,4.834,4.425a4.322,4.322,0,0,1-1.64,2.95Zm12.533,6.717c0,2.293-3.686,5.9-5.981,5.9s-5.98-3.605-5.98-5.9c0-2.377,3.688-5.98,5.98-5.98S256.183,247.869,256.183,250.246Zm20.562-21.955c-1.8,0-4.5-2.785-4.5-4.5s2.7-4.5,4.5-4.5,4.5,2.785,4.5,4.5S278.547,228.291,276.745,228.291Zm-4.5,48.577c0-1.8,2.785-4.587,4.5-4.587s4.5,2.785,4.5,4.587-2.785,4.506-4.5,4.506S272.24,278.671,272.24,276.868Zm13.27-57.342c-1.8,0-4.588-2.867-4.588-4.505s2.785-4.507,4.588-4.507c1.72,0,4.508,2.787,4.508,4.507S287.23,219.526,285.51,219.526Zm-4.588,65.945c0-1.8,2.785-4.5,4.508-4.5s4.5,2.7,4.5,4.5-2.785,4.5-4.5,4.5S280.922,287.274,280.922,285.471Z"/>
</svg>
